<svg id="Capa_1" data-name="Capa 1" xmlns="http://www.w3.org/2000/svg" viewBox="0 0 3200 1000"><defs><style>.cls-1{fill:#476334;}.cls-2{fill:#568a48;}.cls-3{fill:#2f3d7a;}.cls-4{fill:#cedd7e;}.cls-5{fill:#9cba50;}.cls-6{fill:#53753d;}.cls-7{fill:#b6cd52;}</style></defs><title>Logo SYNAgro COLOR</title><path class="cls-1" d="M457,521.19c-22.76,46.32-69.71,78.1-123.3,77.1-33.11-.61-62-12-86.6-35.23,7.13-10.07,13.93-19.71,20.79-29.31a3.88,3.88,0,0,1,2.24-1.69c8-.95,13.81-5.71,19.14-11a126.47,126.47,0,0,0,12.33-14q-4.55-2.55-8.89-5.34a95.82,95.82,0,0,1-20.36,19.67c-1.6-5.68,2.36-16.76,8.79-27.74q-4.29-3.26-8.34-6.75a93.38,93.38,0,0,0-10.51,25c-.46,1.76-1.08,3.66-.84,5.38.93,6.54-2.33,11.31-6,16.16-5.27,7-10.23,14.29-15.62,21.85-10.78-12.39-17.71-26.16-20.33-41.92-4.51-27.06,1.73-51,15.92-72.76a147.5,147.5,0,0,1-15-43,185.09,185.09,0,0,0-20.6,27.63c-28.93,48.38-26.54,106.1,6.11,149,2.8,3.69,5.83,7.19,9,11.11-27.7,40.62-61.85,72.42-111.12,84.69,56,1.13,100.36-24.6,140.66-59.92,47.95,28.57,98.05,34.75,150.27,15.62,57.77-21.16,98.7-70.43,111-129.49A182.69,182.69,0,0,1,457,521.19Z"/><path class="cls-2" d="M2092.06,714.48V655.75h5.53q79.71-.07,159.42-.23a123,123,0,0,0,18.87-1.63c13.63-2.18,19.53-7.94,21.56-21.66,1.21-8.16,1.24-16.49,1.85-25.42-2.49,0-4.26,0-6,0-30,0-60,.31-90-.3-23-.46-45.88-2.93-66.91-13.65-38.42-19.57-61.67-51.1-71-92.6-10.45-46.75-8.52-93.05,11.62-137.14,17.24-37.73,45.07-64.65,86.64-74a239.1,239.1,0,0,1,49-5.5c52.8-.67,105.61-.25,158.42-.24,1,0,2,.08,3.62.15v5.39c0,104.31.19,208.63-.19,312.94a278.37,278.37,0,0,1-4.33,48.57c-6,32.9-27.05,52.35-59.27,58.94a254,254,0,0,1-48,5c-55.8.6-111.61.23-167.42.23C2094.5,714.63,2093.51,714.55,2092.06,714.48Zm207.51-372.23c-16.36,0-32.18-.25-48,.08-16.29.34-32.66.37-48.82,2.12-22.05,2.4-40.55,12.17-50,33.23-17,37.93-20,77.36-7.72,117.17,7.61,24.59,23.39,42.34,49.56,48.6a93.52,93.52,0,0,0,20.21,2.85c28,.43,55.93.38,83.9.48.25,0,.51-.37.82-.6Z"/><path class="cls-3" d="M1214.85,614.8H1208c-32,0-64,.3-96-.31-20.4-.39-40.68-3.27-58.93-13.16-30.86-16.73-48-43-50.76-77.94-1.56-19.86-2-39.84-2.09-59.78-.26-57.89-.09-115.79-.09-173.69v-6.23h75v6c0,59.57-.27,119.13.17,178.69.12,16.21,1.1,32.65,4,48.56,4.41,24.23,17.56,35.85,42.06,36.9,30.1,1.28,60.27.75,90.41,1,.28,0,.57-.24,1.22-.54V283.73h75.07v5.35q0,152-.09,304c0,23-2.79,45.78-10.06,67.79-12.09,36.66-37.43,57.68-75.64,62.61a364.36,364.36,0,0,1-43.78,3c-50.65.35-101.29.13-151.94.13h-6.12V665.73h5.24q78.46-.08,156.93-.2c6,0,12-.41,17.94-1,17.15-1.66,32.07-11.59,32.87-32.25C1213.66,626.69,1214.33,621.1,1214.85,614.8Z"/><path class="cls-2" d="M2011.85,615.59H1936V511.22H1790.11V615.5h-74.73V283.37h5.17c62.31,0,124.63-.3,186.94.13,28.88.2,55.24,8.26,76,29.81,16,16.71,24.13,37.18,27.34,59.73a138,138,0,0,1,1,19.4q.11,108.32,0,216.63ZM1935.9,452c0-16.39.12-32.33-.05-48.26-.1-9.47,0-19-1.11-28.37-2.63-21.41-16.37-33.09-37.84-33.1H1790.34V452Z"/><path class="cls-3" d="M633.44,615.8V554.92h5.85c48.31,0,96.63.15,144.94-.09,15.63-.08,31.3-.57,46.86-2,15-1.36,22.61-9.55,24.21-24.49a83.31,83.31,0,0,0,0-17.86c-1.84-16.92-11.12-25.9-28.17-26.38-26.3-.74-52.62-.53-78.92-1.19-15.12-.38-30.28-1.1-45.31-2.7-29.24-3.12-49.29-19.52-61.74-45.45-15.79-32.88-17.74-66.48-3-100.27,12.9-29.64,36.11-45.7,68-49.06a358.29,358.29,0,0,1,35.87-2c56.81-.2,113.62-.09,170.43-.09h6.36v60.88h-5.24c-52.81.05-105.63,0-158.44.24a195.11,195.11,0,0,0-22.37,1.7c-12.54,1.5-20,9.06-23.27,20.9a63.14,63.14,0,0,0-.87,28.19c1.89,10.57,8.23,17.66,18.63,19.73a185.13,185.13,0,0,0,31.61,3.8c26.47.62,53-.06,79.45.69A219.68,219.68,0,0,1,876.41,424c23.18,4.79,39.52,18.89,48.14,40.8,14.2,36.07,12.52,72-4,106.89-13.63,28.73-37.76,41.92-68.91,43.05q-27.69,1-55.43,1c-52.14.13-104.29,0-156.44,0Z"/><path class="cls-2" d="M3068.49,451c-.14,27.72-4.31,54.65-16.35,79.91-17,35.64-44.62,59.84-81.76,72.38-48,16.21-96.64,16.23-144.47-.71-43.93-15.55-72.5-46.74-85.3-91.44-12.3-43-11.65-86.15,3-128.5,15.34-44.17,45.9-73.83,90.17-88.59,43.33-14.45,87.48-15.26,131.17-2.15,53.2,16,84.87,52.9,97.26,106.27,4,17.21,5.18,35.08,7.64,52.64Zm-77.2-3.75c-1.64-12-2.47-24.16-5.1-35.93-6.32-28.26-20.75-50.59-49-61.62-14.84-5.79-30.36-7.17-46.12-6.3-35.94,2-61.51,20.68-72.65,54.69a164.79,164.79,0,0,0-1.34,100.1c8.3,27.83,26.74,46.24,55.41,53.39a116.61,116.61,0,0,0,43.13,2.25c32.82-4.11,55.75-20.92,67.06-52.49C2988.93,483.89,2990.5,465.76,2991.29,447.27Z"/><path class="cls-3" d="M1361.45,285.37h5.27c54.64,0,109.27-.11,163.91.06,17.85.05,35.64,1.64,52.66,7.47,33.2,11.36,53.14,35.25,61.34,68.57a204.42,204.42,0,0,1,6.07,46.29c.64,68.37.27,136.74.27,205.11v4.65h-75v-5.65c0-63.71.13-127.43-.13-191.14a177.91,177.91,0,0,0-2.81-33.18c-4.89-25.25-19.83-38.7-45.67-40.12-24.25-1.33-48.59-.88-72.9-1.17-6-.08-11.92,0-18.41,0v271.3h-74.65Z"/><path class="cls-2" d="M2537.85,614.55H2463V283.81a17.83,17.83,0,0,1,2.76-.42c41,0,82-.4,122.92.41a193.67,193.67,0,0,1,43.88,5.79c33.07,8.48,52.5,30.3,58.14,64.19,4.34,26.1,2.52,52.38,3,79H2621.5c0-10.13.26-20.23-.08-30.3a148.65,148.65,0,0,0-2-21.81c-3.88-21.14-15.55-32-37.64-34.12-14.37-1.36-28.88-1.21-43.89-1.75Z"/><path class="cls-4" d="M457,521.19c-22.76,46.32-69.71,78.1-123.3,77.1-33.11-.61-62-12-86.6-35.23,7.13-10.07,13.93-19.71,20.79-29.31a3.88,3.88,0,0,1,2.24-1.69c8-.95,13.81-5.71,19.14-11a126.47,126.47,0,0,0,12.33-14,190.88,190.88,0,0,0,93.61,24.07A194,194,0,0,0,457,521.19Z"/><path class="cls-4" d="M262.24,511.93c-.46,1.76-1.08,3.66-.84,5.38.93,6.54-2.33,11.31-6,16.16-5.27,7-10.23,14.29-15.62,21.85-10.78-12.39-17.71-26.16-20.33-41.92-4.51-27.06,1.73-51,15.92-72.76a161.94,161.94,0,0,0,37.34,46.3A93.38,93.38,0,0,0,262.24,511.93Z"/><path class="cls-5" d="M309.78,463.93c-3.32,14.53-8.94,27.05-17.12,37.83a95.82,95.82,0,0,1-20.36,19.67c-1.6-5.68,2.36-16.76,8.79-27.74C288.86,480.38,300.26,467.2,309.78,463.93Z"/><path class="cls-6" d="M509.3,450.18c-1.6-34.45-8.15-68.27-16.71-101.67-5.7-22.26-12.91-44-24.4-64.06-4.23-7.39-10.22-10.91-18.88-10.27-25.07,1.87-49.27,7.58-72.91,15.89-51.95,18.24-96.73,47.81-135.68,86.37-7,6.9-13.86,13.88-20.34,21.21a147.5,147.5,0,0,0,15,43A140.81,140.81,0,0,1,243.86,429c6.54-8.12,13.54-12.18,24.18-12.54,20.74-.72,41.26-.1,61.65,3.79a39.11,39.11,0,0,1,3.86,1.19c-7.76,10.18-15.3,20.09-22.89,30a4.89,4.89,0,0,1-2.31,1.69C300,455.48,293.7,460.85,288,467a117.12,117.12,0,0,0-15.23,20q4,3.49,8.34,6.75c7.77-13.31,19.17-26.49,28.69-29.76-3.32,14.53-8.94,27.05-17.12,37.83q4.35,2.79,8.89,5.34a90.94,90.94,0,0,0,17.3-38,8.39,8.39,0,0,0,.34-3.44c-1.71-6.63,1.82-11.25,5.65-15.95,5.88-7.22,11.71-14.49,17.21-22,2.43-3.32,4.77-3.54,8.42-2.41a224.66,224.66,0,0,1,88.45,51.58c8.09,7.62,15.44,16.06,22.83,24.38a7.19,7.19,0,0,1,1.13,6.08A142,142,0,0,1,457,521.19a182.69,182.69,0,0,0,48.72-24.87A184.61,184.61,0,0,0,509.3,450.18Zm-41.71,41.29c-53.89-61.18-120.68-90-203.07-84.85,49.83-49.23,106.57-82.26,176.28-93.41,4.17,12.1,8.79,23.82,12.26,35.87,9.37,32.5,15,65.74,18,99.4A125.05,125.05,0,0,1,467.59,491.47Z"/><path class="cls-7" d="M333.55,421.46c-7.76,10.18-15.3,20.09-22.89,30a4.89,4.89,0,0,1-2.31,1.69C300,455.48,293.7,460.85,288,467a117.12,117.12,0,0,0-15.23,20,161.94,161.94,0,0,1-37.34-46.3A140.81,140.81,0,0,1,243.86,429c6.54-8.12,13.54-12.18,24.18-12.54,20.74-.72,41.26-.1,61.65,3.79A39.11,39.11,0,0,1,333.55,421.46Z"/><path class="cls-7" d="M462.88,507.32A142,142,0,0,1,457,521.19a194,194,0,0,1-61.79,10,190.88,190.88,0,0,1-93.61-24.07,90.94,90.94,0,0,0,17.3-38,8.39,8.39,0,0,0,.34-3.44c-1.71-6.63,1.82-11.25,5.65-15.95,5.88-7.22,11.71-14.49,17.21-22,2.43-3.32,4.77-3.54,8.42-2.41a224.66,224.66,0,0,1,88.45,51.58c8.09,7.62,15.44,16.06,22.83,24.38A7.19,7.19,0,0,1,462.88,507.32Z"/><path class="cls-7" d="M467.59,491.47c-53.89-61.18-120.68-90-203.07-84.85,49.83-49.23,106.57-82.26,176.28-93.41,4.17,12.1,8.79,23.82,12.26,35.87,9.37,32.5,15,65.74,18,99.4A125.05,125.05,0,0,1,467.59,491.47Z"/></svg>